<svg width="14" height="14" viewBox="0 0 14 14" fill="none" xmlns="http://www.w3.org/2000/svg">
<g clip-path="url(#clip0_331_9)">
<path d="M7 14C10.866 14 14 10.866 14 7C14 3.13401 10.866 0 7 0C3.13401 0 0 3.13401 0 7C0 10.866 3.13401 14 7 14Z" fill="white"/>
<path fill-rule="evenodd" clip-rule="evenodd" d="M0.980713 0.625C0.980713 0.279822 1.26053 0 1.60571 0H7.24514C9.07989 0 10.5673 1.48736 10.5673 3.32212C10.5673 5.15687 9.07989 6.64423 7.24514 6.64423H6.12852L9.08989 9.42051L11.9523 6.55806C12.1964 6.31398 12.5922 6.31398 12.8362 6.55806C13.0803 6.80214 13.0803 7.19786 12.8362 7.44194L10.0023 10.2759L12.8217 12.9191C13.0735 13.1552 13.0863 13.5507 12.8502 13.8025C12.6141 14.0543 12.2186 14.0671 11.9668 13.831L9.11794 11.1602L6.46123 13.8169C6.21715 14.061 5.82142 14.061 5.57735 13.8169C5.33327 13.5729 5.33327 13.1771 5.57735 12.9331L8.20555 10.3049L4.30088 6.64423H2.23071V12.3942C2.23071 12.7394 1.95089 13.0192 1.60571 13.0192C1.26053 13.0192 0.980713 12.7394 0.980713 12.3942V0.625ZM2.23071 5.39423H7.24514C8.38953 5.39423 9.31725 4.46651 9.31725 3.32212C9.31725 2.17772 8.38953 1.25 7.24514 1.25H2.23071V5.39423Z" fill="#4983EF"/>
</g>
<defs>
<clipPath id="clip0_331_9">
<rect width="14" height="14" fill="white"/>
</clipPath>
</defs>
</svg>
